<svg xmlns="http://www.w3.org/2000/svg" viewBox="0 0 24 24" fill="white" width="34" height="34">
  <path d="M12 0C5.37 0 0 5.38 0 12a12 12 0 0 0 8.21 11.44c.6.11.82-.26.82-.58v-2.1c-3.34.73-4.04-1.61-4.04-1.61-.55-1.4-1.34-1.77-1.34-1.77-1.1-.75.09-.73.09-.73 1.22.09 1.87 1.26 1.87 1.26 1.08 1.85 2.84 1.31 3.53 1.01.11-.78.42-1.31.76-1.61-2.66-.3-5.46-1.34-5.46-5.95 0-1.31.47-2.38 1.24-3.22-.13-.31-.54-1.56.12-3.25 0 0 1.01-.32 3.3 1.23a11.47 11.47 0 0 1 6 0c2.28-1.55 3.3-1.23 3.3-1.23.66 1.69.25 2.94.12 3.25.77.84 1.23 1.91 1.23 3.22 0 4.62-2.8 5.65-5.47 5.95.43.37.81 1.1.81 2.23v3.3c0 .32.22.7.83.58A12 12 0 0 0 24 12c0-6.62-5.38-12-12-12z"/>
</svg>
